Rubik-Light.ufo
<glyph name="plus" format="1">
  <advance width="628"/>
  <unicode hex="002B"/>
  <outline>
    <contour>
      <point x="343" y="545" type="line" smooth="yes" name="hr00"/>
      <point x="343" y="558"/>
      <point x="334" y="567"/>
      <point x="321" y="567" type="curve" smooth="yes"/>
      <point x="306" y="567" type="line" smooth="yes"/>
      <point x="293" y="567"/>
      <point x="284" y="558"/>
      <point x="284" y="545" type="curve" smooth="yes"/>
      <point x="284" y="332" type="line"/>
      <point x="67" y="332" type="line" smooth="yes"/>
      <point x="54" y="332"/>
      <point x="45" y="323"/>
      <point x="45" y="310" type="curve" smooth="yes"/>
      <point x="45" y="296" type="line" smooth="yes"/>
      <point x="45" y="283"/>
      <point x="54" y="274"/>
      <point x="67" y="274" type="curve" smooth="yes"/>
      <point x="284" y="274" type="line"/>
      <point x="284" y="55" type="line" smooth="yes"/>
      <point x="284" y="42"/>
      <point x="293" y="33"/>
      <point x="306" y="33" type="curve" smooth="yes"/>
      <point x="321" y="33" type="line" smooth="yes"/>
      <point x="334" y="33"/>
      <point x="343" y="42"/>
      <point x="343" y="55" type="curve" smooth="yes"/>
      <point x="343" y="274" type="line"/>
      <point x="561" y="274" type="line" smooth="yes"/>
      <point x="574" y="274"/>
      <point x="583" y="283"/>
      <point x="583" y="296" type="curve" smooth="yes"/>
      <point x="583" y="310" type="line" smooth="yes"/>
      <point x="583" y="323"/>
      <point x="574" y="332"/>
      <point x="561" y="332" type="curve" smooth="yes"/>
      <point x="343" y="332" type="line"/>
    </contour>
  </outline>
</glyph>
<glyph name="hyphen" format="1">
  <advance width="487"/>
  <unicode hex="002D"/>
  <outline>
    <contour>
      <point x="391" y="271" type="line" smooth="yes" name="hr00"/>
      <point x="404" y="271"/>
      <point x="413" y="280"/>
      <point x="413" y="293" type="curve" smooth="yes"/>
      <point x="413" y="307" type="line" smooth="yes"/>
      <point x="413" y="320"/>
      <point x="404" y="329"/>
      <point x="391" y="329" type="curve" smooth="yes"/>
      <point x="96" y="329" type="line" smooth="yes"/>
      <point x="83" y="329"/>
      <point x="74" y="320"/>
      <point x="74" y="307" type="curve" smooth="yes"/>
      <point x="74" y="293" type="line" smooth="yes"/>
      <point x="74" y="280"/>
      <point x="83" y="271"/>
      <point x="96" y="271" type="curve" smooth="yes"/>
    </contour>
  </outline>
</glyph>
<glyph name="two" format="1">
  <advance width="560"/>
  <unicode hex="0032"/>
  <outline>
    <contour>
      <point x="83" y="483" type="curve" name="hr00"/>
      <point x="103" y="483" type="line" smooth="yes"/>
      <point x="111" y="483"/>
      <point x="124" y="490"/>
      <point x="126" y="506" type="curve" smooth="yes"/>
      <point x="137" y="592"/>
      <point x="190" y="650"/>
      <point x="281" y="650" type="curve" smooth="yes"/>
      <point x="376" y="650"/>
      <point x="429" y="596"/>
      <point x="429" y="507" type="curve" smooth="yes"/>
      <point x="429" y="445"/>
      <point x="411" y="407"/>
      <point x="336" y="338" type="curve" smooth="yes"/>
      <point x="77" y="79" type="line" smooth="yes"/>
      <point x="58" y="62"/>
      <point x="52" y="50"/>
      <point x="52" y="37" type="curve" smooth="yes"/>
      <point x="52" y="22" type="line" smooth="yes"/>
      <point x="52" y="9"/>
      <point x="61" y="0"/>
      <point x="74" y="0" type="curve" smooth="yes"/>
      <point x="484" y="0" type="line" smooth="yes"/>
      <point x="498" y="0"/>
      <point x="507" y="9"/>
      <point x="507" y="22" type="curve" smooth="yes"/>
      <point x="507" y="37" type="line" smooth="yes"/>
      <point x="507" y="51"/>
      <point x="498" y="60"/>
      <point x="484" y="60" type="curve" smooth="yes"/>
      <point x="149" y="60" type="line"/>
      <point x="383" y="298" type="line" smooth="yes"/>
      <point x="456" y="366"/>
      <point x="492" y="425"/>
      <point x="492" y="507" type="curve" smooth="yes"/>
      <point x="492" y="612"/>
      <point x="433" y="710"/>
      <point x="281" y="710" type="curve" smooth="yes"/>
      <point x="129" y="710"/>
      <point x="65" y="593"/>
      <point x="62" y="502" type="curve" smooth="yes"/>
      <point x="62" y="491"/>
      <point x="70" y="483"/>
    </contour>
  </outline>
</glyph>
<glyph name="semicolon" format="1">
  <advance width="259"/>
  <unicode hex="003B"/>
  <outline>
    <contour>
      <point x="179" y="420" type="line" smooth="yes" name="hr00"/>
      <point x="179" y="433"/>
      <point x="169" y="443"/>
      <point x="156" y="443" type="curve" smooth="yes"/>
      <point x="108" y="443" type="line" smooth="yes"/>
      <point x="95" y="443"/>
      <point x="86" y="433"/>
      <point x="86" y="420" type="curve" smooth="yes"/>
      <point x="86" y="372" type="line" smooth="yes"/>
      <point x="86" y="359"/>
      <point x="95" y="350"/>
      <point x="108" y="350" type="curve" smooth="yes"/>
      <point x="156" y="350" type="line" smooth="yes"/>
      <point x="169" y="350"/>
      <point x="179" y="359"/>
      <point x="179" y="372" type="curve" smooth="yes"/>
    </contour>
    <contour>
      <point x="74" y="-54" type="line" smooth="yes"/>
      <point x="72" y="-66"/>
      <point x="77" y="-75"/>
      <point x="88" y="-75" type="curve" smooth="yes"/>
      <point x="105" y="-75" type="line" smooth="yes"/>
      <point x="120" y="-75"/>
      <point x="125" y="-67"/>
      <point x="131" y="-54" type="curve"/>
      <point x="174" y="59" type="line" smooth="yes"/>
      <point x="177" y="66"/>
      <point x="178" y="72"/>
      <point x="178" y="77" type="curve" smooth="yes"/>
      <point x="178" y="85"/>
      <point x="172" y="93"/>
      <point x="163" y="93" type="curve" smooth="yes"/>
      <point x="118" y="93" type="line" smooth="yes"/>
      <point x="102" y="93"/>
      <point x="95" y="82"/>
      <point x="93" y="66" type="curve" smooth="yes"/>
    </contour>
  </outline>
</glyph>
<glyph name="C" format="1">
  <advance width="651"/>
  <unicode hex="0043"/>
  <outline>
    <contour>
      <point x="129" y="434" type="curve" smooth="yes" name="hr00"/>
      <point x="134" y="585"/>
      <point x="209" y="650"/>
      <point x="331" y="650" type="curve" smooth="yes"/>
      <point x="438" y="650"/>
      <point x="509" y="614"/>
      <point x="535" y="495" type="curve" smooth="yes"/>
      <point x="538" y="479"/>
      <point x="546" y="474"/>
      <point x="557" y="474" type="curve" smooth="yes"/>
      <point x="577" y="474" type="line" smooth="yes"/>
      <point x="589" y="474"/>
      <point x="599" y="482"/>
      <point x="598" y="494" type="curve" smooth="yes"/>
      <point x="593" y="589"/>
      <point x="521" y="710"/>
      <point x="331" y="710" type="curve" smooth="yes"/>
      <point x="149" y="710"/>
      <point x="72" y="595"/>
      <point x="66" y="439" type="curve" smooth="yes"/>
      <point x="64" y="382"/>
      <point x="64" y="315"/>
      <point x="66" y="261" type="curve" smooth="yes"/>
      <point x="72" y="105"/>
      <point x="149" y="-10"/>
      <point x="331" y="-10" type="curve" smooth="yes"/>
      <point x="521" y="-10"/>
      <point x="593" y="111"/>
      <point x="598" y="206" type="curve" smooth="yes"/>
      <point x="599" y="218"/>
      <point x="589" y="226"/>
      <point x="577" y="226" type="curve" smooth="yes"/>
      <point x="557" y="226" type="line" smooth="yes"/>
      <point x="546" y="226"/>
      <point x="538" y="221"/>
      <point x="535" y="205" type="curve" smooth="yes"/>
      <point x="509" y="86"/>
      <point x="438" y="50"/>
      <point x="331" y="50" type="curve" smooth="yes"/>
      <point x="209" y="50"/>
      <point x="134" y="115"/>
      <point x="129" y="266" type="curve" smooth="yes"/>
      <point x="127" y="323"/>
      <point x="127" y="379"/>
    </contour>
  </outline>
</glyph>
<glyph name="H" format="1">
  <advance width="700"/>
  <unicode hex="0048"/>
  <outline>
    <contour>
      <point x="565" y="700" type="line" name="hr00"/>
      <point x="552" y="700"/>
      <point x="543" y="691"/>
      <point x="543" y="677" type="curve" smooth="yes"/>
      <point x="543" y="385" type="line"/>
      <point x="157" y="385" type="line"/>
      <point x="157" y="677" type="line" smooth="yes"/>
      <point x="157" y="691"/>
      <point x="148" y="700"/>
      <point x="134" y="700" type="curve" smooth="yes"/>
      <point x="116" y="700" type="line" smooth="yes"/>
      <point x="103" y="700"/>
      <point x="94" y="691"/>
      <point x="94" y="677" type="curve" smooth="yes"/>
      <point x="94" y="22" type="line" smooth="yes"/>
      <point x="94" y="9"/>
      <point x="103" y="0"/>
      <point x="116" y="0" type="curve" smooth="yes"/>
      <point x="134" y="0" type="line" smooth="yes"/>
      <point x="148" y="0"/>
      <point x="157" y="9"/>
      <point x="157" y="22" type="curve" smooth="yes"/>
      <point x="157" y="325" type="line"/>
      <point x="543" y="325" type="line"/>
      <point x="543" y="22" type="line" smooth="yes"/>
      <point x="543" y="9"/>
      <point x="552" y="0"/>
      <point x="565" y="0" type="curve" smooth="yes"/>
      <point x="583" y="0" type="line" smooth="yes"/>
      <point x="597" y="0"/>
      <point x="606" y="9"/>
      <point x="606" y="22" type="curve" smooth="yes"/>
      <point x="606" y="677" type="line" smooth="yes"/>
      <point x="606" y="691"/>
      <point x="597" y="700"/>
      <point x="583" y="700" type="curve" smooth="yes"/>
    </contour>
  </outline>
</glyph>
<glyph name="P" format="1">
  <advance width="628"/>
  <unicode hex="0050"/>
  <outline>
    <contour>
      <point x="116" y="700" type="line" smooth="yes" name="hr00"/>
      <point x="103" y="700"/>
      <point x="94" y="691"/>
      <point x="94" y="677" type="curve" smooth="yes"/>
      <point x="94" y="22" type="line" smooth="yes"/>
      <point x="94" y="9"/>
      <point x="103" y="0"/>
      <point x="116" y="0" type="curve" smooth="yes"/>
      <point x="134" y="0" type="line" smooth="yes"/>
      <point x="148" y="0"/>
      <point x="157" y="9"/>
      <point x="157" y="22" type="curve" smooth="yes"/>
      <point x="157" y="286" type="line"/>
      <point x="359" y="286" type="line" smooth="yes"/>
      <point x="499" y="286"/>
      <point x="589" y="357"/>
      <point x="589" y="493" type="curve" smooth="yes"/>
      <point x="589" y="629"/>
      <point x="499" y="700"/>
      <point x="359" y="700" type="curve" smooth="yes"/>
    </contour>
    <contour>
      <point x="157" y="640" type="line"/>
      <point x="354" y="640" type="line" smooth="yes"/>
      <point x="470" y="640"/>
      <point x="526" y="588"/>
      <point x="526" y="493" type="curve" smooth="yes"/>
      <point x="526" y="398"/>
      <point x="470" y="346"/>
      <point x="354" y="346" type="curve" smooth="yes"/>
      <point x="157" y="346" type="line"/>
    </contour>
  </outline>
</glyph>
<glyph name="T" format="1">
  <advance width="557"/>
  <unicode hex="0054"/>
  <outline>
    <contour>
      <point x="49" y="700" type="line" smooth="yes" name="hr00"/>
      <point x="36" y="700"/>
      <point x="27" y="691"/>
      <point x="27" y="677" type="curve" smooth="yes"/>
      <point x="27" y="662" type="line" smooth="yes"/>
      <point x="27" y="649"/>
      <point x="36" y="640"/>
      <point x="49" y="640" type="curve" smooth="yes"/>
      <point x="247" y="640" type="line"/>
      <point x="247" y="22" type="line" smooth="yes"/>
      <point x="247" y="9"/>
      <point x="256" y="0"/>
      <point x="269" y="0" type="curve" smooth="yes"/>
      <point x="287" y="0" type="line" smooth="yes"/>
      <point x="301" y="0"/>
      <point x="310" y="9"/>
      <point x="310" y="22" type="curve" smooth="yes"/>
      <point x="310" y="640" type="line"/>
      <point x="507" y="640" type="line" smooth="yes"/>
      <point x="521" y="640"/>
      <point x="530" y="649"/>
      <point x="530" y="662" type="curve" smooth="yes"/>
      <point x="530" y="677" type="line" smooth="yes"/>
      <point x="530" y="691"/>
      <point x="521" y="700"/>
      <point x="507" y="700" type="curve" smooth="yes"/>
    </contour>
  </outline>
</glyph>
<glyph name="U" format="1">
  <advance width="691"/>
  <unicode hex="0055"/>
  <outline>
    <contour>
      <point x="540" y="268" type="line" name="hr00"/>
      <point x="540" y="118"/>
      <point x="465" y="50"/>
      <point x="346" y="50" type="curve"/>
      <point x="226" y="50"/>
      <point x="151" y="118"/>
      <point x="151" y="268" type="curve"/>
      <point x="151" y="677" type="line"/>
      <point x="151" y="691"/>
      <point x="142" y="700"/>
      <point x="128" y="700" type="curve"/>
      <point x="110" y="700" type="line"/>
      <point x="97" y="700"/>
      <point x="88" y="691"/>
      <point x="88" y="677" type="curve"/>
      <point x="88" y="271" type="line"/>
      <point x="88" y="77"/>
      <point x="184" y="-10"/>
      <point x="346" y="-10" type="curve"/>
      <point x="509" y="-10"/>
      <point x="603" y="77"/>
      <point x="603" y="271" type="curve"/>
      <point x="603" y="677" type="line"/>
      <point x="603" y="691"/>
      <point x="594" y="700"/>
      <point x="581" y="700" type="curve"/>
      <point x="563" y="700" type="line"/>
      <point x="549" y="700"/>
      <point x="540" y="691"/>
      <point x="540" y="677" type="curve"/>
    </contour>
  </outline>
</glyph>
<glyph name="grave" format="1">
  <advance width="311"/>
  <unicode hex="0060"/>
  <outline>
    <contour>
      <point x="167" y="707" type="line" smooth="yes" name="hr00"/>
      <point x="156" y="720"/>
      <point x="150" y="725"/>
      <point x="130" y="725" type="curve" smooth="yes"/>
      <point x="89" y="725" type="line" smooth="yes"/>
      <point x="77" y="725"/>
      <point x="70" y="718"/>
      <point x="70" y="706" type="curve" smooth="yes"/>
      <point x="70" y="701"/>
      <point x="72" y="697"/>
      <point x="75" y="694" type="curve" smooth="yes"/>
      <point x="184" y="605" type="line" smooth="yes"/>
      <point x="195" y="596"/>
      <point x="202" y="595"/>
      <point x="215" y="595" type="curve" smooth="yes"/>
      <point x="225" y="595" type="line" smooth="yes"/>
      <point x="235" y="595"/>
      <point x="241" y="601"/>
      <point x="241" y="611" type="curve" smooth="yes"/>
      <point x="241" y="616"/>
      <point x="239" y="621"/>
      <point x="236" y="624" type="curve" smooth="yes"/>
    </contour>
  </outline>
</glyph>
<glyph name="t" format="1">
  <advance width="359"/>
  <unicode hex="0074"/>
  <outline>
    <contour>
      <point x="181" y="462" type="line"/>
      <point x="305" y="462" type="line" smooth="yes"/>
      <point x="318" y="462"/>
      <point x="327" y="471"/>
      <point x="327" y="484" type="curve" smooth="yes" name="hr01"/>
      <point x="327" y="498" type="line" smooth="yes"/>
      <point x="327" y="511"/>
      <point x="318" y="520"/>
      <point x="305" y="520" type="curve" smooth="yes"/>
      <point x="181" y="520" type="line" name="hr02"/>
      <point x="181" y="688" type="line" smooth="yes"/>
      <point x="181" y="701"/>
      <point x="172" y="710"/>
      <point x="159" y="710" type="curve" smooth="yes"/>
      <point x="142" y="710" type="line" smooth="yes"/>
      <point x="129" y="710"/>
      <point x="120" y="701"/>
      <point x="120" y="688" type="curve" smooth="yes"/>
      <point x="120" y="520" type="line"/>
      <point x="42" y="520" type="line" smooth="yes"/>
      <point x="29" y="520"/>
      <point x="20" y="511"/>
      <point x="20" y="498" type="curve" smooth="yes"/>
      <point x="20" y="484" type="line" smooth="yes"/>
      <point x="20" y="471"/>
      <point x="29" y="462"/>
      <point x="42" y="462" type="curve" smooth="yes"/>
      <point x="120" y="462" type="line"/>
      <point x="120" y="167" type="line" smooth="yes"/>
      <point x="120" y="73"/>
      <point x="151" y="0"/>
      <point x="256" y="0" type="curve" smooth="yes"/>
      <point x="315" y="0" type="line" smooth="yes"/>
      <point x="328" y="0"/>
      <point x="337" y="9"/>
      <point x="337" y="22" type="curve" smooth="yes"/>
      <point x="337" y="36" type="line" smooth="yes"/>
      <point x="337" y="49"/>
      <point x="328" y="58"/>
      <point x="315" y="58" type="curve" smooth="yes"/>
      <point x="261" y="58" type="line" smooth="yes"/>
      <point x="201" y="58"/>
      <point x="181" y="100"/>
      <point x="181" y="171" type="curve" smooth="yes"/>
    </contour>
  </outline>
</glyph>
<glyph name="u" format="1">
  <advance width="585"/>
  <unicode hex="0075"/>
  <outline>
    <contour>
      <point x="76" y="214" type="line" smooth="yes"/>
      <point x="76" y="87"/>
      <point x="140" y="-10"/>
      <point x="276" y="-10" type="curve" smooth="yes"/>
      <point x="362" y="-10"/>
      <point x="407" y="22"/>
      <point x="443" y="69" type="curve"/>
      <point x="443" y="22" type="line" smooth="yes"/>
      <point x="443" y="9"/>
      <point x="452" y="0"/>
      <point x="465" y="0" type="curve" smooth="yes" name="hr01"/>
      <point x="482" y="0" type="line" smooth="yes"/>
      <point x="495" y="0"/>
      <point x="504" y="9"/>
      <point x="504" y="22" type="curve" smooth="yes"/>
      <point x="504" y="498" type="line" smooth="yes"/>
      <point x="504" y="511"/>
      <point x="495" y="520"/>
      <point x="482" y="520" type="curve" smooth="yes"/>
      <point x="465" y="520" type="line" smooth="yes"/>
      <point x="452" y="520"/>
      <point x="443" y="511"/>
      <point x="443" y="498" type="curve" smooth="yes"/>
      <point x="443" y="219" type="line" smooth="yes"/>
      <point x="443" y="112"/>
      <point x="381" y="48"/>
      <point x="286" y="48" type="curve" smooth="yes" name="hr02"/>
      <point x="186" y="48"/>
      <point x="137" y="106"/>
      <point x="137" y="219" type="curve" smooth="yes"/>
      <point x="137" y="498" type="line" smooth="yes"/>
      <point x="137" y="511"/>
      <point x="128" y="520"/>
      <point x="115" y="520" type="curve" smooth="yes"/>
      <point x="98" y="520" type="line" smooth="yes"/>
      <point x="85" y="520"/>
      <point x="76" y="511"/>
      <point x="76" y="498" type="curve" smooth="yes"/>
    </contour>
  </outline>
</glyph>
<glyph name="z" format="1">
  <advance width="490"/>
  <unicode hex="007A"/>
  <outline>
    <contour>
      <point x="126" y="58" type="line" name="hr00"/>
      <point x="418" y="450" type="line" smooth="yes"/>
      <point x="425" y="460"/>
      <point x="432" y="470"/>
      <point x="432" y="481" type="curve" smooth="yes"/>
      <point x="432" y="498" type="line" smooth="yes"/>
      <point x="432" y="511"/>
      <point x="423" y="520"/>
      <point x="410" y="520" type="curve" smooth="yes"/>
      <point x="74" y="520" type="line" smooth="yes"/>
      <point x="61" y="520"/>
      <point x="52" y="511"/>
      <point x="52" y="498" type="curve" smooth="yes"/>
      <point x="52" y="484" type="line" smooth="yes"/>
      <point x="52" y="471"/>
      <point x="61" y="462"/>
      <point x="74" y="462" type="curve" smooth="yes"/>
      <point x="350" y="462" type="line"/>
      <point x="56" y="70" type="line" smooth="yes"/>
      <point x="49" y="60"/>
      <point x="42" y="50"/>
      <point x="42" y="39" type="curve" smooth="yes"/>
      <point x="42" y="22" type="line" smooth="yes"/>
      <point x="42" y="9"/>
      <point x="51" y="0"/>
      <point x="64" y="0" type="curve" smooth="yes"/>
      <point x="430" y="0" type="line" smooth="yes"/>
      <point x="443" y="0"/>
      <point x="452" y="9"/>
      <point x="452" y="22" type="curve" smooth="yes"/>
      <point x="452" y="36" type="line" smooth="yes"/>
      <point x="452" y="49"/>
      <point x="443" y="58"/>
      <point x="430" y="58" type="curve" smooth="yes"/>
    </contour>
  </outline>
</glyph>
<glyph name="braceleft" format="1">
  <advance width="344"/>
  <unicode hex="007B"/>
  <outline>
    <contour>
      <point x="183" y="152" type="curve" smooth="yes" name="hr00"/>
      <point x="183" y="230"/>
      <point x="160" y="278"/>
      <point x="108" y="309" type="curve"/>
      <point x="160" y="340"/>
      <point x="183" y="388"/>
      <point x="183" y="466" type="curve" smooth="yes"/>
      <point x="183" y="645"/>
      <point x="187" y="717"/>
      <point x="290" y="718" type="curve" smooth="yes"/>
      <point x="295" y="718" type="line" smooth="yes"/>
      <point x="308" y="718"/>
      <point x="317" y="727"/>
      <point x="317" y="740" type="curve" smooth="yes"/>
      <point x="317" y="754" type="line" smooth="yes"/>
      <point x="317" y="767"/>
      <point x="308" y="776"/>
      <point x="295" y="776" type="curve" smooth="yes"/>
      <point x="290" y="776" type="line" smooth="yes"/>
      <point x="133" y="776"/>
      <point x="122" y="670"/>
      <point x="122" y="487" type="curve" smooth="yes"/>
      <point x="122" y="408"/>
      <point x="102" y="379"/>
      <point x="61" y="352" type="curve" smooth="yes"/>
      <point x="43" y="340"/>
      <point x="37" y="331"/>
      <point x="37" y="315" type="curve" smooth="yes"/>
      <point x="37" y="303" type="line" smooth="yes"/>
      <point x="37" y="287"/>
      <point x="43" y="278"/>
      <point x="61" y="266" type="curve" smooth="yes"/>
      <point x="102" y="239"/>
      <point x="122" y="210"/>
      <point x="122" y="131" type="curve" smooth="yes"/>
      <point x="122" y="-52"/>
      <point x="133" y="-159"/>
      <point x="290" y="-159" type="curve" smooth="yes"/>
      <point x="295" y="-159" type="line" smooth="yes"/>
      <point x="308" y="-159"/>
      <point x="317" y="-150"/>
      <point x="317" y="-137" type="curve" smooth="yes"/>
      <point x="317" y="-123" type="line" smooth="yes"/>
      <point x="317" y="-110"/>
      <point x="308" y="-101"/>
      <point x="295" y="-101" type="curve" smooth="yes"/>
      <point x="290" y="-101" type="line" smooth="yes"/>
      <point x="187" y="-100"/>
      <point x="183" y="-27"/>
    </contour>
  </outline>
</glyph>
<glyph name="bar" format="1">
  <advance width="219"/>
  <unicode hex="007C"/>
  <outline>
    <contour>
      <point x="140" y="874" type="line" smooth="yes" name="hr00"/>
      <point x="140" y="887"/>
      <point x="131" y="896"/>
      <point x="118" y="896" type="curve" smooth="yes"/>
      <point x="101" y="896" type="line" smooth="yes"/>
      <point x="88" y="896"/>
      <point x="79" y="887"/>
      <point x="79" y="874" type="curve" smooth="yes"/>
      <point x="79" y="-186" type="line" smooth="yes"/>
      <point x="79" y="-199"/>
      <point x="88" y="-208"/>
      <point x="101" y="-208" type="curve" smooth="yes"/>
      <point x="118" y="-208" type="line" smooth="yes"/>
      <point x="131" y="-208"/>
      <point x="140" y="-199"/>
      <point x="140" y="-186" type="curve" smooth="yes"/>
    </contour>
  </outline>
</glyph>
<glyph name="mu" format="1">
  <advance width="586"/>
  <unicode hex="00B5"/>
  <outline>
    <contour>
      <point x="137" y="69" type="line"/>
      <point x="171" y="24"/>
      <point x="215" y="-10"/>
      <point x="293" y="-10" type="curve" smooth="yes"/>
      <point x="371" y="-10"/>
      <point x="415" y="24"/>
      <point x="449" y="69" type="curve"/>
      <point x="449" y="22" type="line"/>
      <point x="449" y="9"/>
      <point x="458" y="0"/>
      <point x="471" y="0" type="curve" name="hr01"/>
      <point x="488" y="0" type="line"/>
      <point x="501" y="0"/>
      <point x="510" y="9"/>
      <point x="510" y="22" type="curve"/>
      <point x="510" y="498" type="line"/>
      <point x="510" y="511"/>
      <point x="501" y="520"/>
      <point x="488" y="520" type="curve"/>
      <point x="471" y="520" type="line"/>
      <point x="458" y="520"/>
      <point x="449" y="511"/>
      <point x="449" y="498" type="curve"/>
      <point x="449" y="219" type="line"/>
      <point x="449" y="112"/>
      <point x="368" y="48"/>
      <point x="293" y="48" type="curve" smooth="yes" name="hr02"/>
      <point x="218" y="48"/>
      <point x="137" y="112"/>
      <point x="137" y="219" type="curve"/>
      <point x="137" y="498" type="line"/>
      <point x="137" y="511"/>
      <point x="128" y="520"/>
      <point x="115" y="520" type="curve"/>
      <point x="98" y="520" type="line"/>
      <point x="85" y="520"/>
      <point x="76" y="511"/>
      <point x="76" y="498" type="curve"/>
      <point x="76" y="-178" type="line"/>
      <point x="76" y="-191"/>
      <point x="85" y="-200"/>
      <point x="98" y="-200" type="curve"/>
      <point x="115" y="-200" type="line"/>
      <point x="128" y="-200"/>
      <point x="137" y="-191"/>
      <point x="137" y="-178" type="curve"/>
    </contour>
  </outline>
</glyph>
<glyph name="Thorn" format="1">
  <advance width="633"/>
  <unicode hex="00DE"/>
  <outline>
    <contour>
      <point x="157" y="678" type="line" name="hr00"/>
      <point x="157" y="691"/>
      <point x="148" y="700"/>
      <point x="135" y="700" type="curve"/>
      <point x="116" y="700" type="line"/>
      <point x="103" y="700"/>
      <point x="94" y="691"/>
      <point x="94" y="678" type="curve"/>
      <point x="94" y="22" type="line"/>
      <point x="94" y="9"/>
      <point x="103" y="0"/>
      <point x="116" y="0" type="curve"/>
      <point x="134" y="0" type="line"/>
      <point x="148" y="0"/>
      <point x="157" y="9"/>
      <point x="157" y="22" type="curve"/>
      <point x="157" y="143" type="line"/>
      <point x="359" y="143" type="line"/>
      <point x="499" y="143"/>
      <point x="589" y="214"/>
      <point x="589" y="350" type="curve" smooth="yes"/>
      <point x="589" y="486"/>
      <point x="499" y="557"/>
      <point x="359" y="557" type="curve"/>
      <point x="157" y="557" type="line"/>
    </contour>
    <contour>
      <point x="157" y="497" type="line"/>
      <point x="354" y="497" type="line"/>
      <point x="470" y="497"/>
      <point x="526" y="445"/>
      <point x="526" y="350" type="curve" smooth="yes"/>
      <point x="526" y="255"/>
      <point x="470" y="203"/>
      <point x="354" y="203" type="curve"/>
      <point x="157" y="203" type="line"/>
    </contour>
  </outline>
</glyph>
<glyph name="lslash" format="1">
  <advance width="247"/>
  <unicode hex="0142"/>
  <outline>
    <contour>
      <point x="225" y="404" type="line" smooth="yes" name="hr00"/>
      <point x="225" y="416"/>
      <point x="217" y="422"/>
      <point x="206" y="422" type="curve" smooth="yes"/>
      <point x="202" y="422"/>
      <point x="198" y="421"/>
      <point x="193" y="419" type="curve" smooth="yes"/>
      <point x="155" y="404" type="line"/>
      <point x="155" y="688" type="line" smooth="yes"/>
      <point x="155" y="701"/>
      <point x="146" y="710"/>
      <point x="133" y="710" type="curve" smooth="yes"/>
      <point x="116" y="710" type="line" smooth="yes"/>
      <point x="103" y="710"/>
      <point x="94" y="701"/>
      <point x="94" y="688" type="curve" smooth="yes"/>
      <point x="94" y="381" type="line"/>
      <point x="46" y="363" type="line" smooth="yes"/>
      <point x="30" y="357"/>
      <point x="24" y="353"/>
      <point x="24" y="338" type="curve" smooth="yes"/>
      <point x="24" y="319" type="line" smooth="yes"/>
      <point x="24" y="307"/>
      <point x="32" y="301"/>
      <point x="43" y="301" type="curve" smooth="yes"/>
      <point x="47" y="301"/>
      <point x="51" y="302"/>
      <point x="56" y="304" type="curve" smooth="yes"/>
      <point x="94" y="318" type="line"/>
      <point x="94" y="22" type="line" smooth="yes"/>
      <point x="94" y="9"/>
      <point x="103" y="0"/>
      <point x="116" y="0" type="curve" smooth="yes"/>
      <point x="133" y="0" type="line" smooth="yes"/>
      <point x="146" y="0"/>
      <point x="155" y="9"/>
      <point x="155" y="22" type="curve" smooth="yes"/>
      <point x="155" y="341" type="line"/>
      <point x="203" y="360" type="line" smooth="yes"/>
      <point x="219" y="366"/>
      <point x="225" y="370"/>
      <point x="225" y="385" type="curve" smooth="yes"/>
    </contour>
  </outline>
</glyph>
<glyph name="breve" format="1">
  <advance width="370"/>
  <unicode hex="02D8"/>
  <outline>
    <contour>
      <point x="75" y="706" type="curve" smooth="yes"/>
      <point x="75" y="649"/>
      <point x="97" y="590"/>
      <point x="185" y="590" type="curve" smooth="yes"/>
      <point x="273" y="590"/>
      <point x="295" y="649"/>
      <point x="295" y="706" type="curve" smooth="yes"/>
      <point x="295" y="716"/>
      <point x="288" y="725"/>
      <point x="276" y="725" type="curve" smooth="yes"/>
      <point x="261" y="725" type="line" smooth="yes"/>
      <point x="249" y="725"/>
      <point x="242" y="716"/>
      <point x="242" y="706" type="curve" smooth="yes"/>
      <point x="242" y="674"/>
      <point x="231" y="640"/>
      <point x="185" y="640" type="curve" smooth="yes" name="hr01"/>
      <point x="139" y="640"/>
      <point x="128" y="674"/>
      <point x="128" y="706" type="curve" smooth="yes"/>
      <point x="128" y="716"/>
      <point x="121" y="725"/>
      <point x="109" y="725" type="curve" smooth="yes" name="hr02"/>
      <point x="94" y="725" type="line" smooth="yes"/>
      <point x="82" y="725"/>
      <point x="75" y="716"/>
    </contour>
  </outline>
</glyph>
<glyph name="afii10145" format="1">
  <advance width="641"/>
  <unicode hex="040F"/>
  <outline>
    <contour>
      <point x="311" y="-110" type="curve" name="hr00"/>
      <point x="329" y="-110" type="line" smooth="yes"/>
      <point x="343" y="-110"/>
      <point x="352" y="-101"/>
      <point x="352" y="-88" type="curve" smooth="yes"/>
      <point x="352" y="0" type="line"/>
      <point x="524" y="0" type="line" smooth="yes"/>
      <point x="538" y="0"/>
      <point x="547" y="9"/>
      <point x="547" y="22" type="curve" smooth="yes"/>
      <point x="547" y="678" type="line" smooth="yes"/>
      <point x="547" y="691"/>
      <point x="538" y="700"/>
      <point x="524" y="700" type="curve" smooth="yes"/>
      <point x="506" y="700" type="line" smooth="yes"/>
      <point x="493" y="700"/>
      <point x="484" y="691"/>
      <point x="484" y="678" type="curve" smooth="yes"/>
      <point x="484" y="60" type="line"/>
      <point x="157" y="60" type="line"/>
      <point x="157" y="678" type="line" smooth="yes"/>
      <point x="157" y="691"/>
      <point x="148" y="700"/>
      <point x="134" y="700" type="curve" smooth="yes"/>
      <point x="116" y="700" type="line" smooth="yes"/>
      <point x="103" y="700"/>
      <point x="94" y="691"/>
      <point x="94" y="678" type="curve" smooth="yes"/>
      <point x="94" y="22" type="line" smooth="yes"/>
      <point x="94" y="9"/>
      <point x="103" y="0"/>
      <point x="116" y="0" type="curve" smooth="yes"/>
      <point x="289" y="0" type="line"/>
      <point x="289" y="-88" type="line" smooth="yes"/>
      <point x="289" y="-101"/>
      <point x="298" y="-110"/>
    </contour>
  </outline>
</glyph>
<glyph name="afii10020" format="1">
  <advance width="545"/>
  <unicode hex="0413"/>
  <outline>
    <contour>
      <point x="116" y="700" type="line" smooth="yes" name="hr00"/>
      <point x="103" y="700"/>
      <point x="94" y="691"/>
      <point x="94" y="677" type="curve" smooth="yes"/>
      <point x="94" y="22" type="line" smooth="yes"/>
      <point x="94" y="9"/>
      <point x="103" y="0"/>
      <point x="116" y="0" type="curve" smooth="yes"/>
      <point x="134" y="0" type="line" smooth="yes"/>
      <point x="148" y="0"/>
      <point x="157" y="9"/>
      <point x="157" y="22" type="curve" smooth="yes"/>
      <point x="157" y="640" type="line"/>
      <point x="502" y="640" type="line" smooth="yes"/>
      <point x="516" y="640"/>
      <point x="525" y="649"/>
      <point x="525" y="662" type="curve" smooth="yes"/>
      <point x="525" y="677" type="line" smooth="yes"/>
      <point x="525" y="691"/>
      <point x="516" y="700"/>
      <point x="502" y="700" type="curve" smooth="yes"/>
    </contour>
  </outline>
</glyph>
<glyph name="afii10025" format="1">
  <advance width="605"/>
  <unicode hex="0417"/>
  <outline>
    <contour>
      <point x="297" y="710" type="curve" smooth="yes"/>
      <point x="155" y="710"/>
      <point x="68" y="647"/>
      <point x="59" y="540" type="curve" smooth="yes"/>
      <point x="58" y="528"/>
      <point x="68" y="520"/>
      <point x="80" y="520" type="curve" smooth="yes"/>
      <point x="100" y="520" type="line" smooth="yes"/>
      <point x="111" y="520"/>
      <point x="119" y="525"/>
      <point x="122" y="541" type="curve" smooth="yes"/>
      <point x="138" y="619"/>
      <point x="206" y="650"/>
      <point x="297" y="650" type="curve" smooth="yes"/>
      <point x="384" y="650"/>
      <point x="459" y="603"/>
      <point x="459" y="527" type="curve" smooth="yes"/>
      <point x="459" y="436"/>
      <point x="394" y="396"/>
      <point x="301" y="396" type="curve" smooth="yes"/>
      <point x="235" y="396" type="line" smooth="yes"/>
      <point x="222" y="396"/>
      <point x="213" y="387"/>
      <point x="213" y="373" type="curve" smooth="yes"/>
      <point x="213" y="358" type="line" smooth="yes"/>
      <point x="213" y="345"/>
      <point x="222" y="336"/>
      <point x="235" y="336" type="curve" smooth="yes"/>
      <point x="306" y="336" type="line" smooth="yes"/>
      <point x="414" y="336"/>
      <point x="484" y="283"/>
      <point x="484" y="193" type="curve" smooth="yes" name="hr01"/>
      <point x="484" y="103"/>
      <point x="394" y="50"/>
      <point x="293" y="50" type="curve" smooth="yes"/>
      <point x="192" y="50"/>
      <point x="129" y="94"/>
      <point x="113" y="157" type="curve" smooth="yes"/>
      <point x="108" y="177"/>
      <point x="97" y="180"/>
      <point x="86" y="180" type="curve" smooth="yes"/>
      <point x="70" y="180" type="line" smooth="yes"/>
      <point x="58" y="180"/>
      <point x="48" y="173"/>
      <point x="49" y="161" type="curve" smooth="yes"/>
      <point x="58" y="61"/>
      <point x="148" y="-10"/>
      <point x="293" y="-10" type="curve" smooth="yes"/>
      <point x="448" y="-10"/>
      <point x="547" y="73"/>
      <point x="547" y="193" type="curve" smooth="yes"/>
      <point x="547" y="271"/>
      <point x="511" y="334"/>
      <point x="442" y="368" type="curve"/>
      <point x="500" y="403"/>
      <point x="522" y="463"/>
      <point x="522" y="527" type="curve" smooth="yes" name="hr02"/>
      <point x="522" y="618"/>
      <point x="452" y="710"/>
    </contour>
  </outline>
</glyph>
<glyph name="afii10029" format="1">
  <advance width="676"/>
  <unicode hex="041B"/>
  <outline>
    <contour>
      <point x="173" y="700" type="line" smooth="yes"/>
      <point x="160" y="700"/>
      <point x="151" y="691"/>
      <point x="151" y="677" type="curve" smooth="yes"/>
      <point x="151" y="173" type="line" smooth="yes"/>
      <point x="151" y="79"/>
      <point x="111" y="50"/>
      <point x="47" y="50" type="curve" smooth="yes"/>
      <point x="36" y="50" type="line" smooth="yes"/>
      <point x="23" y="50"/>
      <point x="14" y="41"/>
      <point x="14" y="27" type="curve" smooth="yes"/>
      <point x="14" y="12" type="line" smooth="yes"/>
      <point x="14" y="-1"/>
      <point x="23" y="-10"/>
      <point x="36" y="-10" type="curve" smooth="yes"/>
      <point x="54" y="-10" type="line" smooth="yes"/>
      <point x="178" y="-10"/>
      <point x="214" y="86"/>
      <point x="214" y="173" type="curve" smooth="yes"/>
      <point x="214" y="640" type="line"/>
      <point x="519" y="640" type="line"/>
      <point x="519" y="22" type="line" smooth="yes"/>
      <point x="519" y="9"/>
      <point x="528" y="0"/>
      <point x="541" y="0" type="curve" smooth="yes" name="hr01"/>
      <point x="559" y="0" type="line" smooth="yes"/>
      <point x="573" y="0"/>
      <point x="582" y="9"/>
      <point x="582" y="22" type="curve" smooth="yes"/>
      <point x="582" y="677" type="line" smooth="yes"/>
      <point x="582" y="691"/>
      <point x="573" y="700"/>
      <point x="559" y="700" type="curve" smooth="yes"/>
    </contour>
  </outline>
</glyph>
<glyph name="afii10041" format="1">
  <advance width="606"/>
  <unicode hex="0427"/>
  <outline>
    <contour>
      <point x="471" y="700" type="line" smooth="yes" name="hr00"/>
      <point x="458" y="700"/>
      <point x="449" y="691"/>
      <point x="449" y="678" type="curve" smooth="yes"/>
      <point x="449" y="342" type="line"/>
      <point x="261" y="342" type="line" smooth="yes"/>
      <point x="151" y="342"/>
      <point x="114" y="379"/>
      <point x="114" y="489" type="curve" smooth="yes"/>
      <point x="114" y="678" type="line" smooth="yes"/>
      <point x="114" y="691"/>
      <point x="105" y="700"/>
      <point x="91" y="700" type="curve" smooth="yes"/>
      <point x="73" y="700" type="line" smooth="yes"/>
      <point x="60" y="700"/>
      <point x="51" y="691"/>
      <point x="51" y="678" type="curve" smooth="yes"/>
      <point x="51" y="484" type="line" smooth="yes"/>
      <point x="51" y="344"/>
      <point x="113" y="282"/>
      <point x="253" y="282" type="curve" smooth="yes"/>
      <point x="449" y="282" type="line"/>
      <point x="449" y="22" type="line" smooth="yes"/>
      <point x="449" y="9"/>
      <point x="458" y="0"/>
      <point x="471" y="0" type="curve" smooth="yes"/>
      <point x="489" y="0" type="line" smooth="yes"/>
      <point x="503" y="0"/>
      <point x="512" y="9"/>
      <point x="512" y="22" type="curve" smooth="yes"/>
      <point x="512" y="678" type="line" smooth="yes"/>
      <point x="512" y="691"/>
      <point x="503" y="700"/>
      <point x="489" y="700" type="curve" smooth="yes"/>
    </contour>
  </outline>
</glyph>
<glyph name="afii10066" format="1">
  <advance width="544"/>
  <unicode hex="0431"/>
  <outline>
    <contour>
      <point x="55" y="231" type="line" name="hr00"/>
      <point x="55" y="94"/>
      <point x="130" y="-10"/>
      <point x="274" y="-10" type="curve" smooth="yes"/>
      <point x="418" y="-10"/>
      <point x="493" y="94"/>
      <point x="493" y="231" type="curve" smooth="yes"/>
      <point x="493" y="368"/>
      <point x="418" y="470"/>
      <point x="274" y="470" type="curve" smooth="yes"/>
      <point x="247" y="470"/>
      <point x="222" y="466"/>
      <point x="200" y="459" type="curve"/>
      <point x="277" y="555"/>
      <point x="381" y="613"/>
      <point x="381" y="708" type="curve" smooth="yes"/>
      <point x="381" y="721"/>
      <point x="372" y="730"/>
      <point x="359" y="730" type="curve"/>
      <point x="342" y="730" type="line"/>
      <point x="329" y="730"/>
      <point x="320" y="721"/>
      <point x="320" y="708" type="curve" smooth="yes"/>
      <point x="320" y="598"/>
      <point x="55" y="525"/>
      <point x="55" y="251" type="curve"/>
    </contour>
    <contour>
      <point x="116" y="231" type="curve"/>
      <point x="116" y="243" type="line"/>
      <point x="120" y="338"/>
      <point x="173" y="412"/>
      <point x="274" y="412" type="curve" smooth="yes"/>
      <point x="379" y="412"/>
      <point x="432" y="332"/>
      <point x="432" y="231" type="curve" smooth="yes"/>
      <point x="432" y="130"/>
      <point x="379" y="48"/>
      <point x="274" y="48" type="curve" smooth="yes"/>
      <point x="169" y="48"/>
      <point x="116" y="130"/>
    </contour>
  </outline>
</glyph>
<glyph name="afii10068" format="1">
  <advance width="488"/>
  <unicode hex="0433"/>
  <outline>
    <contour>
      <point x="456" y="462" type="line" smooth="yes" name="hr00"/>
      <point x="469" y="462"/>
      <point x="478" y="471"/>
      <point x="478" y="484" type="curve" smooth="yes"/>
      <point x="478" y="498" type="line" smooth="yes"/>
      <point x="478" y="511"/>
      <point x="469" y="520"/>
      <point x="456" y="520" type="curve" smooth="yes"/>
      <point x="103" y="520" type="line" smooth="yes"/>
      <point x="90" y="520"/>
      <point x="81" y="511"/>
      <point x="81" y="498" type="curve" smooth="yes"/>
      <point x="81" y="22" type="line" smooth="yes"/>
      <point x="81" y="9"/>
      <point x="90" y="0"/>
      <point x="103" y="0" type="curve" smooth="yes"/>
      <point x="120" y="0" type="line" smooth="yes"/>
      <point x="133" y="0"/>
      <point x="142" y="9"/>
      <point x="142" y="22" type="curve" smooth="yes"/>
      <point x="142" y="462" type="line"/>
    </contour>
  </outline>
</glyph>
<glyph name="afii10077" format="1">
  <advance width="595"/>
  <unicode hex="043B"/>
  <outline>
    <contour>
      <point x="135" y="158" type="line" smooth="yes"/>
      <point x="135" y="97"/>
      <point x="125" y="48"/>
      <point x="55" y="48" type="curve" smooth="yes"/>
      <point x="40" y="48" type="line" smooth="yes"/>
      <point x="27" y="48"/>
      <point x="18" y="39"/>
      <point x="18" y="26" type="curve" smooth="yes"/>
      <point x="18" y="12" type="line" smooth="yes"/>
      <point x="18" y="-1"/>
      <point x="27" y="-10"/>
      <point x="40" y="-10" type="curve" smooth="yes"/>
      <point x="60" y="-10" type="line" smooth="yes"/>
      <point x="175" y="-10"/>
      <point x="196" y="65"/>
      <point x="196" y="159" type="curve" smooth="yes"/>
      <point x="196" y="462" type="line"/>
      <point x="453" y="462" type="line"/>
      <point x="453" y="22" type="line" smooth="yes"/>
      <point x="453" y="9"/>
      <point x="462" y="0"/>
      <point x="475" y="0" type="curve" smooth="yes" name="hr01"/>
      <point x="492" y="0" type="line" smooth="yes"/>
      <point x="505" y="0"/>
      <point x="514" y="9"/>
      <point x="514" y="22" type="curve" smooth="yes"/>
      <point x="514" y="498" type="line" smooth="yes"/>
      <point x="514" y="511"/>
      <point x="505" y="520"/>
      <point x="492" y="520" type="curve" smooth="yes"/>
      <point x="157" y="520" type="line" smooth="yes"/>
      <point x="144" y="520"/>
      <point x="135" y="511"/>
      <point x="135" y="498" type="curve" smooth="yes"/>
    </contour>
  </outline>
</glyph>
<glyph name="afii10081" format="1">
  <advance width="596"/>
  <unicode hex="043F"/>
  <outline>
    <contour>
      <point x="103" y="0" type="curve" name="hr00"/>
      <point x="120" y="0" type="line" smooth="yes"/>
      <point x="133" y="0"/>
      <point x="142" y="9"/>
      <point x="142" y="22" type="curve" smooth="yes"/>
      <point x="142" y="462" type="line"/>
      <point x="454" y="462" type="line"/>
      <point x="454" y="22" type="line" smooth="yes"/>
      <point x="454" y="9"/>
      <point x="463" y="0"/>
      <point x="476" y="0" type="curve" smooth="yes"/>
      <point x="493" y="0" type="line" smooth="yes"/>
      <point x="506" y="0"/>
      <point x="515" y="9"/>
      <point x="515" y="22" type="curve" smooth="yes"/>
      <point x="515" y="498" type="line" smooth="yes"/>
      <point x="515" y="511"/>
      <point x="506" y="520"/>
      <point x="493" y="520" type="curve" smooth="yes"/>
      <point x="103" y="520" type="line" smooth="yes"/>
      <point x="90" y="520"/>
      <point x="81" y="511"/>
      <point x="81" y="498" type="curve" smooth="yes"/>
      <point x="81" y="22" type="line" smooth="yes"/>
      <point x="81" y="9"/>
      <point x="90" y="0"/>
    </contour>
  </outline>
</glyph>
<glyph name="afii10107" format="1">
  <advance width="766"/>
  <unicode hex="045A"/>
  <outline>
    <contour>
      <point x="142" y="498" type="line" smooth="yes" name="hr00"/>
      <point x="142" y="511"/>
      <point x="133" y="520"/>
      <point x="120" y="520" type="curve" smooth="yes"/>
      <point x="103" y="520" type="line" smooth="yes"/>
      <point x="90" y="520"/>
      <point x="81" y="511"/>
      <point x="81" y="498" type="curve" smooth="yes"/>
      <point x="81" y="22" type="line" smooth="yes"/>
      <point x="81" y="9"/>
      <point x="90" y="0"/>
      <point x="103" y="0" type="curve" smooth="yes"/>
      <point x="120" y="0" type="line" smooth="yes"/>
      <point x="133" y="0"/>
      <point x="142" y="9"/>
      <point x="142" y="22" type="curve" smooth="yes"/>
      <point x="142" y="237" type="line"/>
      <point x="342" y="237" type="line"/>
      <point x="342" y="22" type="line" smooth="yes"/>
      <point x="342" y="9"/>
      <point x="351" y="0"/>
      <point x="364" y="0" type="curve" smooth="yes"/>
      <point x="506" y="0" type="line" smooth="yes"/>
      <point x="652" y="0"/>
      <point x="727" y="68"/>
      <point x="727" y="187" type="curve" smooth="yes"/>
      <point x="727" y="299"/>
      <point x="652" y="377"/>
      <point x="522" y="377" type="curve" smooth="yes"/>
      <point x="403" y="377" type="line"/>
      <point x="403" y="498" type="line" smooth="yes"/>
      <point x="403" y="511"/>
      <point x="394" y="520"/>
      <point x="381" y="520" type="curve" smooth="yes"/>
      <point x="364" y="520" type="line" smooth="yes"/>
      <point x="351" y="520"/>
      <point x="342" y="511"/>
      <point x="342" y="498" type="curve" smooth="yes"/>
      <point x="342" y="295" type="line"/>
      <point x="142" y="295" type="line"/>
    </contour>
    <contour>
      <point x="516" y="319" type="line" smooth="yes"/>
      <point x="623" y="319"/>
      <point x="666" y="268"/>
      <point x="666" y="187" type="curve" smooth="yes"/>
      <point x="666" y="107"/>
      <point x="620" y="58"/>
      <point x="516" y="58" type="curve" smooth="yes"/>
      <point x="403" y="58" type="line"/>
      <point x="403" y="319" type="line"/>
    </contour>
  </outline>
</glyph>
<glyph name="afii10098" format="1">
  <advance width="488"/>
  <unicode hex="0491"/>
  <outline>
    <contour>
      <point x="478" y="484" type="curve" name="hr00"/>
      <point x="478" y="608" type="line" smooth="yes"/>
      <point x="478" y="621"/>
      <point x="469" y="630"/>
      <point x="456" y="630" type="curve" smooth="yes"/>
      <point x="439" y="630" type="line" smooth="yes"/>
      <point x="426" y="630"/>
      <point x="417" y="621"/>
      <point x="417" y="608" type="curve" smooth="yes"/>
      <point x="417" y="520" type="line"/>
      <point x="101" y="520" type="line"/>
      <point x="89" y="519"/>
      <point x="81" y="510"/>
      <point x="81" y="498" type="curve" smooth="yes"/>
      <point x="81" y="22" type="line" smooth="yes"/>
      <point x="81" y="9"/>
      <point x="90" y="0"/>
      <point x="103" y="0" type="curve" smooth="yes"/>
      <point x="120" y="0" type="line" smooth="yes"/>
      <point x="133" y="0"/>
      <point x="142" y="9"/>
      <point x="142" y="22" type="curve" smooth="yes"/>
      <point x="142" y="462" type="line"/>
      <point x="456" y="462" type="line" smooth="yes"/>
      <point x="469" y="462"/>
      <point x="478" y="471"/>
    </contour>
  </outline>
</glyph>
<glyph name="bethebrew" format="1">
  <advance width="548"/>
  <unicode hex="05D1"/>
  <outline>
    <contour>
      <point x="52" y="549" type="curve" name="hr00"/>
      <point x="52" y="535" type="line" smooth="yes"/>
      <point x="52" y="522"/>
      <point x="61" y="513"/>
      <point x="74" y="513" type="curve" smooth="yes"/>
      <point x="206" y="513" type="line" smooth="yes"/>
      <point x="341" y="513"/>
      <point x="397" y="442"/>
      <point x="397" y="322" type="curve" smooth="yes"/>
      <point x="397" y="58" type="line"/>
      <point x="64" y="58" type="line" smooth="yes"/>
      <point x="51" y="58"/>
      <point x="42" y="49"/>
      <point x="42" y="36" type="curve" smooth="yes"/>
      <point x="42" y="22" type="line" smooth="yes"/>
      <point x="42" y="9"/>
      <point x="51" y="0"/>
      <point x="64" y="0" type="curve" smooth="yes"/>
      <point x="496" y="0" type="line" smooth="yes"/>
      <point x="509" y="0"/>
      <point x="518" y="9"/>
      <point x="518" y="22" type="curve" smooth="yes"/>
      <point x="518" y="36" type="line" smooth="yes"/>
      <point x="518" y="49"/>
      <point x="509" y="58"/>
      <point x="496" y="58" type="curve" smooth="yes"/>
      <point x="458" y="58" type="line"/>
      <point x="458" y="327" type="line" smooth="yes"/>
      <point x="458" y="481"/>
      <point x="381" y="571"/>
      <point x="211" y="571" type="curve" smooth="yes"/>
      <point x="74" y="571" type="line" smooth="yes"/>
      <point x="61" y="571"/>
      <point x="52" y="562"/>
    </contour>
  </outline>
</glyph>
<glyph name="yodhebrew" format="1">
  <advance width="213"/>
  <unicode hex="05D9"/>
  <outline>
    <contour>
      <point x="137" y="549" type="line" name="hr00"/>
      <point x="137" y="562"/>
      <point x="128" y="571"/>
      <point x="115" y="571" type="curve" smooth="yes"/>
      <point x="98" y="571" type="line" smooth="yes"/>
      <point x="85" y="571"/>
      <point x="76" y="562"/>
      <point x="76" y="549" type="curve" smooth="yes"/>
      <point x="76" y="262" type="line" smooth="yes"/>
      <point x="76" y="249"/>
      <point x="85" y="240"/>
      <point x="98" y="240" type="curve" smooth="yes"/>
      <point x="115" y="240" type="line" smooth="yes"/>
      <point x="128" y="240"/>
      <point x="137" y="249"/>
      <point x="137" y="262" type="curve" smooth="yes"/>
    </contour>
  </outline>
</glyph>
<glyph name="finalkafhebrew" format="1">
  <advance width="500"/>
  <unicode hex="05DA"/>
  <outline>
    <contour>
      <point x="480" y="549" type="curve" name="hr00"/>
      <point x="480" y="535" type="line" smooth="yes"/>
      <point x="480" y="522"/>
      <point x="471" y="513"/>
      <point x="458" y="513" type="curve" smooth="yes"/>
      <point x="366" y="513" type="line"/>
      <point x="366" y="-102" type="line" smooth="yes"/>
      <point x="366" y="-115"/>
      <point x="357" y="-124"/>
      <point x="344" y="-124" type="curve" smooth="yes"/>
      <point x="327" y="-124" type="line" smooth="yes"/>
      <point x="314" y="-124"/>
      <point x="305" y="-115"/>
      <point x="305" y="-102" type="curve" smooth="yes"/>
      <point x="305" y="513" type="line"/>
      <point x="36" y="513" type="line" smooth="yes"/>
      <point x="23" y="513"/>
      <point x="14" y="522"/>
      <point x="14" y="535" type="curve" smooth="yes"/>
      <point x="14" y="549" type="line" smooth="yes"/>
      <point x="14" y="562"/>
      <point x="23" y="571"/>
      <point x="36" y="571" type="curve" smooth="yes"/>
      <point x="458" y="571" type="line" smooth="yes"/>
      <point x="471" y="571"/>
      <point x="480" y="562"/>
    </contour>
  </outline>
</glyph>
<glyph name="ayinhebrew" format="1">
  <advance width="617"/>
  <unicode hex="05E2"/>
  <outline>
    <contour>
      <point x="117" y="556" type="line" smooth="yes" name="hr00"/>
      <point x="114" y="564"/>
      <point x="107" y="571"/>
      <point x="94" y="571" type="curve" smooth="yes"/>
      <point x="76" y="571" type="line" smooth="yes"/>
      <point x="65" y="571"/>
      <point x="56" y="562"/>
      <point x="56" y="551" type="curve" smooth="yes"/>
      <point x="56" y="546"/>
      <point x="58" y="541"/>
      <point x="61" y="531" type="curve" smooth="yes"/>
      <point x="223" y="58" type="line"/>
      <point x="59" y="58" type="line" smooth="yes"/>
      <point x="46" y="58"/>
      <point x="37" y="49"/>
      <point x="37" y="36" type="curve" smooth="yes"/>
      <point x="37" y="22" type="line" smooth="yes"/>
      <point x="37" y="9"/>
      <point x="46" y="0"/>
      <point x="59" y="0" type="curve" smooth="yes"/>
      <point x="287" y="0" type="line" smooth="yes"/>
      <point x="462" y="0"/>
      <point x="539" y="89"/>
      <point x="539" y="244" type="curve" smooth="yes"/>
      <point x="539" y="549" type="line" smooth="yes"/>
      <point x="539" y="562"/>
      <point x="530" y="571"/>
      <point x="517" y="571" type="curve" smooth="yes"/>
      <point x="500" y="571" type="line" smooth="yes"/>
      <point x="487" y="571"/>
      <point x="478" y="562"/>
      <point x="478" y="549" type="curve" smooth="yes"/>
      <point x="478" y="249" type="line" smooth="yes"/>
      <point x="478" y="129"/>
      <point x="422" y="58"/>
      <point x="287" y="58" type="curve"/>
    </contour>
  </outline>
</glyph>
<glyph name="finalpehebrew" format="1">
  <advance width="569"/>
  <unicode hex="05E3"/>
  <outline>
    <contour>
      <point x="337" y="147" type="line" smooth="yes" name="hr00"/>
      <point x="350" y="147"/>
      <point x="359" y="156"/>
      <point x="359" y="169" type="curve" smooth="yes"/>
      <point x="359" y="183" type="line" smooth="yes"/>
      <point x="359" y="196"/>
      <point x="350" y="205"/>
      <point x="337" y="205" type="curve" smooth="yes"/>
      <point x="246" y="205" type="line" smooth="yes"/>
      <point x="151" y="205"/>
      <point x="115" y="256"/>
      <point x="115" y="336" type="curve" smooth="yes"/>
      <point x="115" y="513" type="line"/>
      <point x="238" y="513" type="line" smooth="yes"/>
      <point x="373" y="513"/>
      <point x="429" y="442"/>
      <point x="429" y="322" type="curve" smooth="yes"/>
      <point x="429" y="-102" type="line" smooth="yes"/>
      <point x="429" y="-115"/>
      <point x="438" y="-124"/>
      <point x="451" y="-124" type="curve" smooth="yes"/>
      <point x="468" y="-124" type="line" smooth="yes"/>
      <point x="481" y="-124"/>
      <point x="490" y="-115"/>
      <point x="490" y="-102" type="curve" smooth="yes"/>
      <point x="490" y="327" type="line" smooth="yes"/>
      <point x="490" y="482"/>
      <point x="413" y="571"/>
      <point x="243" y="571" type="curve" smooth="yes"/>
      <point x="76" y="571" type="line" smooth="yes"/>
      <point x="63" y="571"/>
      <point x="54" y="562"/>
      <point x="54" y="549" type="curve" smooth="yes"/>
      <point x="54" y="331" type="line" smooth="yes"/>
      <point x="54" y="217"/>
      <point x="118" y="147"/>
      <point x="246" y="147" type="curve" smooth="yes"/>
    </contour>
  </outline>
</glyph>
<glyph name="bullet" format="1">
  <advance width="380"/>
  <unicode hex="2022"/>
  <outline>
    <contour>
      <point x="90" y="300" type="curve" smooth="yes" name="hr00"/>
      <point x="90" y="245"/>
      <point x="135" y="200"/>
      <point x="190" y="200" type="curve" smooth="yes"/>
      <point x="245" y="200"/>
      <point x="290" y="245"/>
      <point x="290" y="300" type="curve" smooth="yes"/>
      <point x="290" y="355"/>
      <point x="245" y="400"/>
      <point x="190" y="400" type="curve" smooth="yes"/>
      <point x="135" y="400"/>
      <point x="90" y="355"/>
    </contour>
  </outline>
</glyph>
<glyph name="product" format="1">
  <advance width="599"/>
  <unicode hex="220F"/>
  <outline>
    <contour>
      <point x="121" y="-200" type="line" smooth="yes" name="hr00"/>
      <point x="134" y="-200"/>
      <point x="143" y="-191"/>
      <point x="143" y="-178" type="curve" smooth="yes"/>
      <point x="143" y="642" type="line"/>
      <point x="456" y="642" type="line"/>
      <point x="456" y="-178" type="line" smooth="yes"/>
      <point x="456" y="-191"/>
      <point x="465" y="-200"/>
      <point x="478" y="-200" type="curve" smooth="yes"/>
      <point x="496" y="-200" type="line" smooth="yes"/>
      <point x="509" y="-200"/>
      <point x="518" y="-191"/>
      <point x="518" y="-178" type="curve" smooth="yes"/>
      <point x="518" y="678" type="line" smooth="yes"/>
      <point x="518" y="691"/>
      <point x="509" y="700"/>
      <point x="496" y="700" type="curve" smooth="yes"/>
      <point x="103" y="700" type="line" smooth="yes"/>
      <point x="90" y="700"/>
      <point x="81" y="691"/>
      <point x="81" y="678" type="curve" smooth="yes"/>
      <point x="81" y="-178" type="line" smooth="yes"/>
      <point x="81" y="-191"/>
      <point x="90" y="-200"/>
      <point x="103" y="-200" type="curve" smooth="yes"/>
    </contour>
  </outline>
</glyph>
<glyph name="radical" format="1">
  <advance width="664"/>
  <unicode hex="221A"/>
  <outline>
    <contour>
      <point x="234" y="73" type="line" name="hr00"/>
      <point x="90" y="505" type="line" smooth="yes"/>
      <point x="88" y="510"/>
      <point x="81" y="520"/>
      <point x="68" y="520" type="curve" smooth="yes"/>
      <point x="48" y="520" type="line" smooth="yes"/>
      <point x="37" y="520"/>
      <point x="28" y="511"/>
      <point x="28" y="500" type="curve" smooth="yes"/>
      <point x="28" y="498"/>
      <point x="29" y="492"/>
      <point x="30" y="489" type="curve" smooth="yes"/>
      <point x="189" y="15" type="line" smooth="yes"/>
      <point x="192" y="8"/>
      <point x="198" y="0"/>
      <point x="211" y="0" type="curve" smooth="yes"/>
      <point x="260" y="0" type="line" smooth="yes"/>
      <point x="273" y="0"/>
      <point x="280" y="9"/>
      <point x="285" y="25" type="curve" smooth="yes"/>
      <point x="501" y="802" type="line"/>
      <point x="627" y="802" type="line" smooth="yes"/>
      <point x="640" y="802"/>
      <point x="649" y="811"/>
      <point x="649" y="824" type="curve" smooth="yes"/>
      <point x="649" y="838" type="line" smooth="yes"/>
      <point x="649" y="851"/>
      <point x="640" y="860"/>
      <point x="627" y="860" type="curve" smooth="yes"/>
      <point x="471" y="860" type="line" smooth="yes"/>
      <point x="457" y="860"/>
      <point x="449" y="846"/>
      <point x="446" y="836" type="curve" smooth="yes"/>
    </contour>
  </outline>
</glyph>
<glyph name="integral" format="1">
  <advance width="421"/>
  <unicode hex="222B"/>
  <outline>
    <contour>
      <point x="242" y="572" type="line" smooth="yes" name="hr00"/>
      <point x="242" y="643"/>
      <point x="261" y="682"/>
      <point x="332" y="682" type="curve" smooth="yes"/>
      <point x="384" y="682" type="line" smooth="yes"/>
      <point x="397" y="682"/>
      <point x="406" y="691"/>
      <point x="406" y="704" type="curve" smooth="yes"/>
      <point x="406" y="718" type="line" smooth="yes"/>
      <point x="406" y="731"/>
      <point x="397" y="740"/>
      <point x="384" y="740" type="curve" smooth="yes"/>
      <point x="332" y="740" type="line" smooth="yes"/>
      <point x="210" y="740"/>
      <point x="181" y="666"/>
      <point x="181" y="577" type="curve" smooth="yes"/>
      <point x="181" y="-57" type="line" smooth="yes"/>
      <point x="181" y="-118"/>
      <point x="172" y="-167"/>
      <point x="91" y="-167" type="curve" smooth="yes"/>
      <point x="38" y="-167" type="line" smooth="yes"/>
      <point x="25" y="-167"/>
      <point x="16" y="-176"/>
      <point x="16" y="-189" type="curve" smooth="yes"/>
      <point x="16" y="-203" type="line" smooth="yes"/>
      <point x="16" y="-216"/>
      <point x="25" y="-225"/>
      <point x="38" y="-225" type="curve" smooth="yes"/>
      <point x="91" y="-225" type="line" smooth="yes"/>
      <point x="213" y="-225"/>
      <point x="242" y="-151"/>
      <point x="242" y="-57" type="curve" smooth="yes"/>
    </contour>
  </outline>
</glyph>
<glyph name="shinsindothebrew" format="1">
  <advance width="709"/>
  <unicode hex="FB2B"/>
  <outline>
    <contour>
      <point x="144" y="678" type="line" smooth="yes" name="hr00"/>
      <point x="144" y="691"/>
      <point x="135" y="700"/>
      <point x="122" y="700" type="curve" smooth="yes"/>
      <point x="99" y="700" type="line" smooth="yes"/>
      <point x="86" y="700"/>
      <point x="77" y="691"/>
      <point x="77" y="678" type="curve" smooth="yes"/>
      <point x="77" y="655" type="line" smooth="yes"/>
      <point x="77" y="642"/>
      <point x="86" y="633"/>
      <point x="99" y="633" type="curve" smooth="yes"/>
      <point x="122" y="633" type="line" smooth="yes"/>
      <point x="135" y="633"/>
      <point x="144" y="642"/>
      <point x="144" y="655" type="curve" smooth="yes"/>
    </contour>
    <component base="shinhebrew"/>
  </outline>
</glyph>
<glyph name="shindageshshindothebrew" format="1">
  <advance width="709"/>
  <unicode hex="FB2C"/>
  <outline>
    <contour>
      <point x="632" y="678" type="line" smooth="yes" name="hr00"/>
      <point x="632" y="691"/>
      <point x="623" y="700"/>
      <point x="610" y="700" type="curve" smooth="yes"/>
      <point x="587" y="700" type="line" smooth="yes"/>
      <point x="574" y="700"/>
      <point x="565" y="691"/>
      <point x="565" y="678" type="curve" smooth="yes"/>
      <point x="565" y="655" type="line" smooth="yes"/>
      <point x="565" y="642"/>
      <point x="574" y="633"/>
      <point x="587" y="633" type="curve" smooth="yes"/>
      <point x="610" y="633" type="line" smooth="yes"/>
      <point x="623" y="633"/>
      <point x="632" y="642"/>
      <point x="632" y="655" type="curve" smooth="yes"/>
    </contour>
    <contour>
      <point x="481" y="296" type="line" smooth="yes"/>
      <point x="481" y="309"/>
      <point x="472" y="318"/>
      <point x="459" y="318" type="curve" smooth="yes"/>
      <point x="436" y="318" type="line" smooth="yes"/>
      <point x="423" y="318"/>
      <point x="414" y="309"/>
      <point x="414" y="296" type="curve" smooth="yes"/>
      <point x="414" y="273" type="line" smooth="yes"/>
      <point x="414" y="260"/>
      <point x="423" y="251"/>
      <point x="436" y="251" type="curve" smooth="yes"/>
      <point x="459" y="251" type="line" smooth="yes"/>
      <point x="472" y="251"/>
      <point x="481" y="260"/>
      <point x="481" y="273" type="curve" smooth="yes"/>
    </contour>
    <component base="shinhebrew"/>
  </outline>
</glyph>
<glyph name="tetdageshhebrew" format="1">
  <advance width="624"/>
  <unicode hex="FB38"/>
  <outline>
    <contour>
      <point x="357" y="296" type="line" smooth="yes" name="hr00"/>
      <point x="357" y="309"/>
      <point x="348" y="318"/>
      <point x="335" y="318" type="curve" smooth="yes"/>
      <point x="312" y="318" type="line" smooth="yes"/>
      <point x="299" y="318"/>
      <point x="290" y="309"/>
      <point x="290" y="296" type="curve" smooth="yes"/>
      <point x="290" y="273" type="line" smooth="yes"/>
      <point x="290" y="260"/>
      <point x="299" y="251"/>
      <point x="312" y="251" type="curve" smooth="yes"/>
      <point x="335" y="251" type="line" smooth="yes"/>
      <point x="348" y="251"/>
      <point x="357" y="260"/>
      <point x="357" y="273" type="curve" smooth="yes"/>
    </contour>
    <component base="tethebrew"/>
  </outline>
</glyph>
<glyph name="qofdageshhebrew" format="1">
  <advance width="610"/>
  <unicode hex="FB47"/>
  <outline>
    <contour>
      <point x="343" y="296" type="line" smooth="yes" name="hr00"/>
      <point x="343" y="309"/>
      <point x="334" y="318"/>
      <point x="321" y="318" type="curve" smooth="yes"/>
      <point x="298" y="318" type="line" smooth="yes"/>
      <point x="285" y="318"/>
      <point x="276" y="309"/>
      <point x="276" y="296" type="curve" smooth="yes"/>
      <point x="276" y="273" type="line" smooth="yes"/>
      <point x="276" y="260"/>
      <point x="285" y="251"/>
      <point x="298" y="251" type="curve" smooth="yes"/>
      <point x="321" y="251" type="line" smooth="yes"/>
      <point x="334" y="251"/>
      <point x="343" y="260"/>
      <point x="343" y="273" type="curve" smooth="yes"/>
    </contour>
    <component base="qofhebrew"/>
  </outline>
</glyph>
<glyph name="Breve" format="1">
  <advance width="370"/>
  <outline>
    <contour>
      <point x="70" y="856" type="curve" smooth="yes"/>
      <point x="70" y="799"/>
      <point x="94" y="740"/>
      <point x="185" y="740" type="curve" smooth="yes"/>
      <point x="276" y="740"/>
      <point x="300" y="799"/>
      <point x="300" y="856" type="curve" smooth="yes"/>
      <point x="300" y="866"/>
      <point x="293" y="875"/>
      <point x="281" y="875" type="curve" smooth="yes"/>
      <point x="266" y="875" type="line" smooth="yes"/>
      <point x="254" y="875"/>
      <point x="247" y="866"/>
      <point x="247" y="856" type="curve" smooth="yes"/>
      <point x="247" y="824"/>
      <point x="234" y="790"/>
      <point x="185" y="790" type="curve" smooth="yes" name="hr01"/>
      <point x="136" y="790"/>
      <point x="123" y="824"/>
      <point x="123" y="856" type="curve" smooth="yes"/>
      <point x="123" y="866"/>
      <point x="116" y="875"/>
      <point x="104" y="875" type="curve" smooth="yes" name="hr02"/>
      <point x="89" y="875" type="line" smooth="yes"/>
      <point x="77" y="875"/>
      <point x="70" y="866"/>
    </contour>
  </outline>
</glyph>
<glyph name="Ogonek" format="1">
  <advance width="313"/>
  <outline>
    <contour>
      <point x="221" y="-220" type="line" smooth="yes"/>
      <point x="234" y="-220"/>
      <point x="243" y="-211"/>
      <point x="243" y="-198" type="curve" smooth="yes"/>
      <point x="243" y="-185" type="line" smooth="yes"/>
      <point x="243" y="-172"/>
      <point x="234" y="-163"/>
      <point x="221" y="-163" type="curve" smooth="yes"/>
      <point x="206" y="-163" type="line" smooth="yes"/>
      <point x="162" y="-163"/>
      <point x="130" y="-133"/>
      <point x="130" y="-82" type="curve" smooth="yes" name="hr01"/>
      <point x="130" y="-31"/>
      <point x="162" y="0"/>
      <point x="206" y="0" type="curve" smooth="yes"/>
      <point x="221" y="0" type="line" smooth="yes"/>
      <point x="234" y="0"/>
      <point x="243" y="9"/>
      <point x="243" y="22" type="curve" smooth="yes" name="hr02"/>
      <point x="243" y="35" type="line" smooth="yes"/>
      <point x="243" y="48"/>
      <point x="234" y="57"/>
      <point x="221" y="57" type="curve" smooth="yes"/>
      <point x="202" y="57" type="line" smooth="yes"/>
      <point x="121" y="57"/>
      <point x="70" y="3"/>
      <point x="70" y="-82" type="curve" smooth="yes"/>
      <point x="70" y="-167"/>
      <point x="121" y="-220"/>
      <point x="202" y="-220" type="curve" smooth="yes"/>
    </contour>
  </outline>
</glyph>
<glyph name="bracketright.cap" format="1">
  <advance width="317"/>
  <outline>
    <contour>
      <point x="63" y="818" type="line" smooth="yes"/>
      <point x="50" y="818"/>
      <point x="41" y="809"/>
      <point x="41" y="796" type="curve" smooth="yes"/>
      <point x="41" y="782" type="line" smooth="yes"/>
      <point x="41" y="769"/>
      <point x="50" y="760"/>
      <point x="63" y="760" type="curve" smooth="yes"/>
      <point x="175" y="760" type="line" name="hr01"/>
      <point x="175" y="-59" type="line"/>
      <point x="63" y="-59" type="line" smooth="yes"/>
      <point x="50" y="-59"/>
      <point x="41" y="-68"/>
      <point x="41" y="-81" type="curve" smooth="yes" name="hr02"/>
      <point x="41" y="-95" type="line" smooth="yes"/>
      <point x="41" y="-108"/>
      <point x="50" y="-117"/>
      <point x="63" y="-117" type="curve" smooth="yes"/>
      <point x="214" y="-117" type="line" smooth="yes"/>
      <point x="227" y="-117"/>
      <point x="236" y="-108"/>
      <point x="236" y="-95" type="curve" smooth="yes"/>
      <point x="236" y="796" type="line" smooth="yes"/>
      <point x="236" y="809"/>
      <point x="227" y="818"/>
      <point x="214" y="818" type="curve" smooth="yes"/>
    </contour>
  </outline>
</glyph>
<glyph name="hyphen.cap" format="1">
  <advance width="491"/>
  <outline>
    <contour>
      <point x="393" y="321" type="line" smooth="yes" name="hr00"/>
      <point x="406" y="321"/>
      <point x="415" y="330"/>
      <point x="415" y="343" type="curve" smooth="yes"/>
      <point x="415" y="357" type="line" smooth="yes"/>
      <point x="415" y="370"/>
      <point x="406" y="379"/>
      <point x="393" y="379" type="curve" smooth="yes"/>
      <point x="98" y="379" type="line" smooth="yes"/>
      <point x="85" y="379"/>
      <point x="76" y="370"/>
      <point x="76" y="357" type="curve" smooth="yes"/>
      <point x="76" y="343" type="line" smooth="yes"/>
      <point x="76" y="330"/>
      <point x="85" y="321"/>
      <point x="98" y="321" type="curve" smooth="yes"/>
    </contour>
  </outline>
</glyph>
